<mxfile host="app.diagrams.net" modified="2021-09-18T02:44:21.092Z" agent="5.0 (Windows NT 10.0; Win64; x64) AppleWebKit/537.36 (KHTML, like Gecko) Chrome/93.0.4577.82 Safari/537.36" etag="SKi9JqoAHBDNvpIHbJaK" version="15.2.9" type="github">
  <diagram id="R2lEEEUBdFMjLlhIrx00" name="Page-1">
    <mxGraphModel dx="1021" dy="614" grid="1" gridSize="10" guides="1" tooltips="1" connect="1" arrows="1" fold="1" page="1" pageScale="1" pageWidth="850" pageHeight="1100" math="0" shadow="0" extFonts="Permanent Marker^https://fonts.googleapis.com/css?family=Permanent+Marker">
      <root>
        <mxCell id="0" />
        <mxCell id="1" parent="0" />
        <mxCell id="tnqrUzDjdZkfZCXfOBtb-1" value="&lt;font style=&quot;font-size: 18px&quot; face=&quot;Georgia&quot;&gt;Cliente&lt;/font&gt;" style="rounded=1;whiteSpace=wrap;html=1;" vertex="1" parent="1">
          <mxGeometry x="100" y="190" width="120" height="60" as="geometry" />
        </mxCell>
        <mxCell id="tnqrUzDjdZkfZCXfOBtb-2" value="nombre" style="ellipse;whiteSpace=wrap;html=1;" vertex="1" parent="1">
          <mxGeometry x="130" y="10" width="80" height="40" as="geometry" />
        </mxCell>
        <mxCell id="tnqrUzDjdZkfZCXfOBtb-3" value="apellidos" style="ellipse;whiteSpace=wrap;html=1;" vertex="1" parent="1">
          <mxGeometry x="70" y="80" width="70" height="50" as="geometry" />
        </mxCell>
        <mxCell id="tnqrUzDjdZkfZCXfOBtb-4" value="direccion" style="ellipse;whiteSpace=wrap;html=1;" vertex="1" parent="1">
          <mxGeometry x="280" y="10" width="80" height="30" as="geometry" />
        </mxCell>
        <mxCell id="tnqrUzDjdZkfZCXfOBtb-5" value="&lt;font style=&quot;font-size: 16px&quot;&gt;&lt;u&gt;dni&lt;/u&gt;&lt;/font&gt;" style="ellipse;whiteSpace=wrap;html=1;" vertex="1" parent="1">
          <mxGeometry x="190" y="70" width="90" height="40" as="geometry" />
        </mxCell>
        <mxCell id="tnqrUzDjdZkfZCXfOBtb-7" value="fechaNacimiento" style="ellipse;whiteSpace=wrap;html=1;" vertex="1" parent="1">
          <mxGeometry y="10" width="100" height="60" as="geometry" />
        </mxCell>
        <mxCell id="tnqrUzDjdZkfZCXfOBtb-10" value="" style="endArrow=none;html=1;entryX=0.5;entryY=1;entryDx=0;entryDy=0;" edge="1" parent="1" target="tnqrUzDjdZkfZCXfOBtb-7">
          <mxGeometry width="50" height="50" relative="1" as="geometry">
            <mxPoint x="160" y="190" as="sourcePoint" />
            <mxPoint x="210" y="140" as="targetPoint" />
            <Array as="points">
              <mxPoint x="50" y="150" />
            </Array>
          </mxGeometry>
        </mxCell>
        <mxCell id="tnqrUzDjdZkfZCXfOBtb-12" value="" style="endArrow=none;html=1;entryX=0.5;entryY=1;entryDx=0;entryDy=0;" edge="1" parent="1" target="tnqrUzDjdZkfZCXfOBtb-3">
          <mxGeometry width="50" height="50" relative="1" as="geometry">
            <mxPoint x="160" y="190" as="sourcePoint" />
            <mxPoint x="210" y="140" as="targetPoint" />
          </mxGeometry>
        </mxCell>
        <mxCell id="tnqrUzDjdZkfZCXfOBtb-14" value="" style="endArrow=none;html=1;entryX=0.5;entryY=0;entryDx=0;entryDy=0;exitX=0.5;exitY=1;exitDx=0;exitDy=0;" edge="1" parent="1" source="tnqrUzDjdZkfZCXfOBtb-2" target="tnqrUzDjdZkfZCXfOBtb-1">
          <mxGeometry width="50" height="50" relative="1" as="geometry">
            <mxPoint x="410" y="280" as="sourcePoint" />
            <mxPoint x="460" y="230" as="targetPoint" />
          </mxGeometry>
        </mxCell>
        <mxCell id="tnqrUzDjdZkfZCXfOBtb-15" value="" style="endArrow=none;html=1;entryX=0.5;entryY=1;entryDx=0;entryDy=0;exitX=0.5;exitY=0;exitDx=0;exitDy=0;" edge="1" parent="1" source="tnqrUzDjdZkfZCXfOBtb-1" target="tnqrUzDjdZkfZCXfOBtb-5">
          <mxGeometry width="50" height="50" relative="1" as="geometry">
            <mxPoint x="410" y="280" as="sourcePoint" />
            <mxPoint x="460" y="230" as="targetPoint" />
            <Array as="points">
              <mxPoint x="235" y="180" />
            </Array>
          </mxGeometry>
        </mxCell>
        <mxCell id="tnqrUzDjdZkfZCXfOBtb-16" value="" style="endArrow=none;html=1;entryX=0.5;entryY=1;entryDx=0;entryDy=0;exitX=0.5;exitY=0;exitDx=0;exitDy=0;" edge="1" parent="1" source="tnqrUzDjdZkfZCXfOBtb-1" target="tnqrUzDjdZkfZCXfOBtb-4">
          <mxGeometry width="50" height="50" relative="1" as="geometry">
            <mxPoint x="320" y="150" as="sourcePoint" />
            <mxPoint x="370" y="100" as="targetPoint" />
            <Array as="points">
              <mxPoint x="300" y="150" />
            </Array>
          </mxGeometry>
        </mxCell>
        <mxCell id="tnqrUzDjdZkfZCXfOBtb-22" value="&lt;font style=&quot;font-size: 18px&quot;&gt;Producto&lt;/font&gt;" style="rounded=1;whiteSpace=wrap;html=1;" vertex="1" parent="1">
          <mxGeometry x="580" y="190" width="120" height="60" as="geometry" />
        </mxCell>
        <mxCell id="tnqrUzDjdZkfZCXfOBtb-23" value="nombre" style="ellipse;whiteSpace=wrap;html=1;" vertex="1" parent="1">
          <mxGeometry x="600" y="60" width="80" height="40" as="geometry" />
        </mxCell>
        <mxCell id="tnqrUzDjdZkfZCXfOBtb-24" value="precioUnitario" style="ellipse;whiteSpace=wrap;html=1;" vertex="1" parent="1">
          <mxGeometry x="470" y="90" width="90" height="55" as="geometry" />
        </mxCell>
        <mxCell id="tnqrUzDjdZkfZCXfOBtb-25" value="codigo" style="ellipse;whiteSpace=wrap;html=1;" vertex="1" parent="1">
          <mxGeometry x="740" y="100" width="70" height="45" as="geometry" />
        </mxCell>
        <mxCell id="tnqrUzDjdZkfZCXfOBtb-26" value="" style="endArrow=none;html=1;entryX=0.5;entryY=0;entryDx=0;entryDy=0;exitX=0.5;exitY=1;exitDx=0;exitDy=0;" edge="1" parent="1" source="tnqrUzDjdZkfZCXfOBtb-23" target="tnqrUzDjdZkfZCXfOBtb-22">
          <mxGeometry width="50" height="50" relative="1" as="geometry">
            <mxPoint x="410" y="280" as="sourcePoint" />
            <mxPoint x="460" y="230" as="targetPoint" />
          </mxGeometry>
        </mxCell>
        <mxCell id="tnqrUzDjdZkfZCXfOBtb-27" value="" style="endArrow=none;html=1;entryX=0.5;entryY=0;entryDx=0;entryDy=0;exitX=0.5;exitY=1;exitDx=0;exitDy=0;" edge="1" parent="1" source="tnqrUzDjdZkfZCXfOBtb-24" target="tnqrUzDjdZkfZCXfOBtb-22">
          <mxGeometry width="50" height="50" relative="1" as="geometry">
            <mxPoint x="410" y="280" as="sourcePoint" />
            <mxPoint x="460" y="230" as="targetPoint" />
          </mxGeometry>
        </mxCell>
        <mxCell id="tnqrUzDjdZkfZCXfOBtb-28" value="" style="endArrow=none;html=1;entryX=0.5;entryY=0;entryDx=0;entryDy=0;exitX=0.5;exitY=1;exitDx=0;exitDy=0;" edge="1" parent="1" source="tnqrUzDjdZkfZCXfOBtb-25" target="tnqrUzDjdZkfZCXfOBtb-22">
          <mxGeometry width="50" height="50" relative="1" as="geometry">
            <mxPoint x="410" y="280" as="sourcePoint" />
            <mxPoint x="460" y="230" as="targetPoint" />
          </mxGeometry>
        </mxCell>
        <mxCell id="tnqrUzDjdZkfZCXfOBtb-29" value="&lt;font style=&quot;font-size: 18px&quot;&gt;Proveedor&lt;/font&gt;" style="rounded=1;whiteSpace=wrap;html=1;" vertex="1" parent="1">
          <mxGeometry x="340" y="430" width="120" height="60" as="geometry" />
        </mxCell>
        <mxCell id="tnqrUzDjdZkfZCXfOBtb-30" value="nombre" style="ellipse;whiteSpace=wrap;html=1;" vertex="1" parent="1">
          <mxGeometry x="250" y="520" width="70" height="50" as="geometry" />
        </mxCell>
        <mxCell id="tnqrUzDjdZkfZCXfOBtb-31" value="NIF" style="ellipse;whiteSpace=wrap;html=1;" vertex="1" parent="1">
          <mxGeometry x="485" y="510" width="60" height="50" as="geometry" />
        </mxCell>
        <mxCell id="tnqrUzDjdZkfZCXfOBtb-33" value="direccion" style="ellipse;whiteSpace=wrap;html=1;" vertex="1" parent="1">
          <mxGeometry x="365" y="520" width="70" height="40" as="geometry" />
        </mxCell>
        <mxCell id="tnqrUzDjdZkfZCXfOBtb-34" value="" style="endArrow=none;html=1;exitX=0.5;exitY=1;exitDx=0;exitDy=0;entryX=0.5;entryY=0;entryDx=0;entryDy=0;" edge="1" parent="1" source="tnqrUzDjdZkfZCXfOBtb-29" target="tnqrUzDjdZkfZCXfOBtb-33">
          <mxGeometry width="50" height="50" relative="1" as="geometry">
            <mxPoint x="410" y="280" as="sourcePoint" />
            <mxPoint x="460" y="230" as="targetPoint" />
          </mxGeometry>
        </mxCell>
        <mxCell id="tnqrUzDjdZkfZCXfOBtb-35" value="" style="endArrow=none;html=1;exitX=0.5;exitY=1;exitDx=0;exitDy=0;entryX=0.5;entryY=0;entryDx=0;entryDy=0;" edge="1" parent="1" source="tnqrUzDjdZkfZCXfOBtb-29" target="tnqrUzDjdZkfZCXfOBtb-31">
          <mxGeometry width="50" height="50" relative="1" as="geometry">
            <mxPoint x="410" y="280" as="sourcePoint" />
            <mxPoint x="460" y="230" as="targetPoint" />
          </mxGeometry>
        </mxCell>
        <mxCell id="tnqrUzDjdZkfZCXfOBtb-36" value="" style="endArrow=none;html=1;entryX=0.5;entryY=0;entryDx=0;entryDy=0;" edge="1" parent="1" target="tnqrUzDjdZkfZCXfOBtb-30">
          <mxGeometry width="50" height="50" relative="1" as="geometry">
            <mxPoint x="400" y="490" as="sourcePoint" />
            <mxPoint x="460" y="230" as="targetPoint" />
          </mxGeometry>
        </mxCell>
        <mxCell id="tnqrUzDjdZkfZCXfOBtb-37" value="" style="endArrow=none;html=1;exitX=1;exitY=0.5;exitDx=0;exitDy=0;entryX=0;entryY=0.5;entryDx=0;entryDy=0;startArrow=none;" edge="1" parent="1" source="tnqrUzDjdZkfZCXfOBtb-40" target="tnqrUzDjdZkfZCXfOBtb-22">
          <mxGeometry width="50" height="50" relative="1" as="geometry">
            <mxPoint x="410" y="280" as="sourcePoint" />
            <mxPoint x="460" y="230" as="targetPoint" />
          </mxGeometry>
        </mxCell>
        <mxCell id="tnqrUzDjdZkfZCXfOBtb-38" value="&lt;font style=&quot;font-size: 18px&quot;&gt;*&lt;/font&gt;" style="text;html=1;resizable=0;autosize=1;align=center;verticalAlign=middle;points=[];fillColor=none;strokeColor=none;rounded=0;" vertex="1" parent="1">
          <mxGeometry x="340" y="190" width="20" height="20" as="geometry" />
        </mxCell>
        <mxCell id="tnqrUzDjdZkfZCXfOBtb-39" value="&lt;font style=&quot;font-size: 18px&quot;&gt;*&lt;/font&gt;" style="text;html=1;resizable=0;autosize=1;align=center;verticalAlign=middle;points=[];fillColor=none;strokeColor=none;rounded=0;" vertex="1" parent="1">
          <mxGeometry x="460" y="190" width="20" height="20" as="geometry" />
        </mxCell>
        <mxCell id="tnqrUzDjdZkfZCXfOBtb-40" value="compra" style="rhombus;whiteSpace=wrap;html=1;" vertex="1" parent="1">
          <mxGeometry x="370" y="180" width="80" height="80" as="geometry" />
        </mxCell>
        <mxCell id="tnqrUzDjdZkfZCXfOBtb-41" value="" style="endArrow=none;html=1;exitX=1;exitY=0.5;exitDx=0;exitDy=0;entryX=0;entryY=0.5;entryDx=0;entryDy=0;" edge="1" parent="1" source="tnqrUzDjdZkfZCXfOBtb-1" target="tnqrUzDjdZkfZCXfOBtb-40">
          <mxGeometry width="50" height="50" relative="1" as="geometry">
            <mxPoint x="220" y="220" as="sourcePoint" />
            <mxPoint x="580" y="220" as="targetPoint" />
          </mxGeometry>
        </mxCell>
        <mxCell id="tnqrUzDjdZkfZCXfOBtb-43" value="" style="endArrow=none;html=1;exitX=1;exitY=0.5;exitDx=0;exitDy=0;entryX=0.5;entryY=1;entryDx=0;entryDy=0;startArrow=none;" edge="1" parent="1" source="tnqrUzDjdZkfZCXfOBtb-44" target="tnqrUzDjdZkfZCXfOBtb-22">
          <mxGeometry width="50" height="50" relative="1" as="geometry">
            <mxPoint x="410" y="270" as="sourcePoint" />
            <mxPoint x="460" y="220" as="targetPoint" />
            <Array as="points">
              <mxPoint x="640" y="460" />
            </Array>
          </mxGeometry>
        </mxCell>
        <mxCell id="tnqrUzDjdZkfZCXfOBtb-44" value="suminstrar" style="rhombus;whiteSpace=wrap;html=1;" vertex="1" parent="1">
          <mxGeometry x="600" y="420" width="80" height="80" as="geometry" />
        </mxCell>
        <mxCell id="tnqrUzDjdZkfZCXfOBtb-45" value="" style="endArrow=none;html=1;exitX=1;exitY=0.5;exitDx=0;exitDy=0;entryX=0;entryY=0.5;entryDx=0;entryDy=0;" edge="1" parent="1" source="tnqrUzDjdZkfZCXfOBtb-29" target="tnqrUzDjdZkfZCXfOBtb-44">
          <mxGeometry width="50" height="50" relative="1" as="geometry">
            <mxPoint x="460" y="460" as="sourcePoint" />
            <mxPoint x="640" y="250" as="targetPoint" />
            <Array as="points" />
          </mxGeometry>
        </mxCell>
        <mxCell id="tnqrUzDjdZkfZCXfOBtb-46" value="&lt;font style=&quot;font-size: 18px&quot;&gt;*&lt;/font&gt;" style="text;html=1;resizable=0;autosize=1;align=center;verticalAlign=middle;points=[];fillColor=none;strokeColor=none;rounded=0;" vertex="1" parent="1">
          <mxGeometry x="580" y="440" width="20" height="20" as="geometry" />
        </mxCell>
        <mxCell id="tnqrUzDjdZkfZCXfOBtb-47" value="1" style="text;html=1;resizable=0;autosize=1;align=center;verticalAlign=middle;points=[];fillColor=none;strokeColor=none;rounded=0;" vertex="1" parent="1">
          <mxGeometry x="640" y="400" width="20" height="20" as="geometry" />
        </mxCell>
      </root>
    </mxGraphModel>
  </diagram>
</mxfile>
